<svg xmlns="http://www.w3.org/2000/svg" version="1.1" viewBox="0 0 45 41" width="45" height="41"><g stroke-width="2" fill="none" stroke-linecap="butt" stroke="#95bcfb" data-c-stroke="95bcfb"><path d="M 26.80 15.12 A 1.41 1.41 0.0 0 1 25.89 14.20 L 23.36 6.16 A 1.41 1.41 0.0 0 0 20.67 6.16 L 18.11 14.19 A 1.41 1.41 0.0 0 1 17.19 15.10 L 9.15 17.63 A 1.41 1.41 0.0 0 0 9.15 20.32 L 17.18 22.88 A 1.41 1.41 0.0 0 1 18.09 23.80 L 20.62 31.84 A 1.41 1.41 0.0 0 0 23.31 31.84 L 25.87 23.81 A 1.41 1.41 0.0 0 1 26.79 22.90 L 34.83 20.37 A 1.41 1.41 0.0 0 0 34.83 17.68 L 26.80 15.12"/><path d="M28.11 10.25Q28.11 11.47 30.14 11.46A.56.56 0 0 1 30.7 12.03Q30.69 13.98 31.99 13.98 33.29 13.98 33.28 12.04A.56.56 0 0 1 33.85 11.47Q35.88 11.49 35.88 10.26 35.88 9.04 33.85 9.05A.56.56 0 0 1 33.29 8.48Q33.31 6.54 32 6.53 30.7 6.53 30.71 8.48A.56.56 0 0 1 30.14 9.04Q28.11 9.03 28.11 10.25M14.4003 27.0011A.76.76 0 0 0 14.3853 25.9265L12.507 24.0999A.76.76 0 0 0 11.4323 24.1149L9.6197 25.9789A.76.76 0 0 0 9.6347 27.0535L11.513 28.8801A.76.76 0 0 0 12.5877 28.8651L14.4003 27.0011M12.63 19.45Q15.63 19.39 18.39 20.52A3.79 3.77-86.1 0 1 20.62 23.09L21.72 27.43A.3.3 0 0 0 22.31 27.41Q22.75 25.03 23.51 22.75C24.4 20.07 27.56 19.89 30.66 19.23A.27.27 0 0 0 30.63 18.69Q28.17 18.46 25.31 17.32C23.17 16.47 22.95 12.98 22.35 10.8A.31.31 0 0 0 21.75 10.8C21.19 12.95 20.54 17.14 18.1 17.65Q13.95 18.52 12.56 19.17A.15.15 0 0 0 12.63 19.45"/></g><path fill="#eff6ff" d="M 45.00 0.00 L 45.00 41.00 L 0.00 41.00 L 0.00 0.00 L 45.00 0.00 Z M 26.80 15.12 A 1.41 1.41 0.0 0 1 25.89 14.20 L 23.36 6.16 A 1.41 1.41 0.0 0 0 20.67 6.16 L 18.11 14.19 A 1.41 1.41 0.0 0 1 17.19 15.10 L 9.15 17.63 A 1.41 1.41 0.0 0 0 9.15 20.32 L 17.18 22.88 A 1.41 1.41 0.0 0 1 18.09 23.80 L 20.62 31.84 A 1.41 1.41 0.0 0 0 23.31 31.84 L 25.87 23.81 A 1.41 1.41 0.0 0 1 26.79 22.90 L 34.83 20.37 A 1.41 1.41 0.0 0 0 34.83 17.68 L 26.80 15.12 Z M 28.11 10.25 Q 28.11 11.47 30.14 11.46 A 0.56 0.56 0.0 0 1 30.70 12.03 Q 30.69 13.98 31.99 13.98 Q 33.29 13.98 33.28 12.04 A 0.56 0.56 0.0 0 1 33.85 11.47 Q 35.88 11.49 35.88 10.26 Q 35.88 9.04 33.85 9.05 A 0.56 0.56 0.0 0 1 33.29 8.48 Q 33.31 6.54 32.00 6.53 Q 30.70 6.53 30.71 8.48 A 0.56 0.56 0.0 0 1 30.14 9.04 Q 28.11 9.03 28.11 10.25 Z M 14.4003 27.0011 A 0.76 0.76 0.0 0 0 14.3853 25.9265 L 12.5070 24.0999 A 0.76 0.76 0.0 0 0 11.4323 24.1149 L 9.6197 25.9789 A 0.76 0.76 0.0 0 0 9.6347 27.0535 L 11.5130 28.8801 A 0.76 0.76 0.0 0 0 12.5877 28.8651 L 14.4003 27.0011 Z" data-c-fill="eff6ff" fill-opacity="0"/><path fill="#3b82f6" d="M 26.80 15.12 L 34.83 17.68 A 1.41 1.41 0.0 0 1 34.83 20.37 L 26.79 22.90 A 1.41 1.41 0.0 0 0 25.87 23.81 L 23.31 31.84 A 1.41 1.41 0.0 0 1 20.62 31.84 L 18.09 23.80 A 1.41 1.41 0.0 0 0 17.18 22.88 L 9.15 20.32 A 1.41 1.41 0.0 0 1 9.15 17.63 L 17.19 15.10 A 1.41 1.41 0.0 0 0 18.11 14.19 L 20.67 6.16 A 1.41 1.41 0.0 0 1 23.36 6.16 L 25.89 14.20 A 1.41 1.41 0.0 0 0 26.80 15.12 Z M 12.63 19.45 Q 15.63 19.39 18.39 20.52 A 3.79 3.77 -86.1 0 1 20.62 23.09 L 21.72 27.43 A 0.30 0.30 0.0 0 0 22.31 27.41 Q 22.75 25.03 23.51 22.75 C 24.40 20.07 27.56 19.89 30.66 19.23 A 0.27 0.27 0.0 0 0 30.63 18.69 Q 28.17 18.46 25.31 17.32 C 23.17 16.47 22.95 12.98 22.35 10.80 A 0.31 0.31 0.0 0 0 21.75 10.80 C 21.19 12.95 20.54 17.14 18.10 17.65 Q 13.95 18.52 12.56 19.17 A 0.15 0.15 0.0 0 0 12.63 19.45 Z" data-c-fill="3b82f6"/><path fill="#3b82f6" d="M 32.00 6.53 Q 33.31 6.54 33.29 8.48 A 0.56 0.56 0.0 0 0 33.85 9.05 Q 35.88 9.04 35.88 10.26 Q 35.88 11.49 33.85 11.47 A 0.56 0.56 0.0 0 0 33.28 12.04 Q 33.29 13.98 31.99 13.98 Q 30.69 13.98 30.70 12.03 A 0.56 0.56 0.0 0 0 30.14 11.46 Q 28.11 11.47 28.11 10.25 Q 28.11 9.03 30.14 9.04 A 0.56 0.56 0.0 0 0 30.71 8.48 Q 30.70 6.53 32.00 6.53 Z" data-c-fill="3b82f6"/><path fill="#eff6ff" d="M 12.56 19.17 Q 13.95 18.52 18.10 17.65 C 20.54 17.14 21.19 12.95 21.75 10.80 A 0.31 0.31 0.0 0 1 22.35 10.80 C 22.95 12.98 23.17 16.47 25.31 17.32 Q 28.17 18.46 30.63 18.69 A 0.27 0.27 0.0 0 1 30.66 19.23 C 27.56 19.89 24.40 20.07 23.51 22.75 Q 22.75 25.03 22.31 27.41 A 0.30 0.30 0.0 0 1 21.72 27.43 L 20.62 23.09 A 3.79 3.77 -86.1 0 0 18.39 20.52 Q 15.63 19.39 12.63 19.45 A 0.15 0.15 0.0 0 1 12.56 19.17 Z" data-c-fill="eff6ff" fill-opacity="0"/><rect fill="#3b82f6" x="-2.07" y="-2.06" transform="rotate(44.2 -26.614 28.034)" width="4.14" height="4.12" rx=".76" data-c-fill="3b82f6"/></svg>