<?xml version="1.0" encoding="UTF-8"?>
<svg width="68" height="68" viewBox="0 0 68 68" fill="none" xmlns="http://www.w3.org/2000/svg">
  <path d="M46.4 39.2c0-7.8-7.8-14.2-16.9-14.2s-16.9 6.3-16.9 14.2c0 7.8 7.8 14.2 16.9 14.2 2 0 3.9-0.3 5.7-0.8l5.2 2.9c0.1 0.1 0.3 0.1 0.4 0.1 0.2 0 0.3-0.1 0.4-0.2 0.2-0.2 0.2-0.5 0-0.7l-4-4.5c5.8-2.4 9.2-7.1 9.2-11z" 
        stroke="#4080ff" 
        stroke-width="3.5" 
        stroke-linejoin="round"
        fill="none" />
  <path d="M28 32.8c-1.1 0-2 0.9-2 2s0.9 2 2 2 2-0.9 2-2-0.9-2-2-2z"
        fill="#4080ff" />
  <path d="M35 32.8c-1.1 0-2 0.9-2 2s0.9 2 2 2 2-0.9 2-2-0.9-2-2-2z"
        fill="#4080ff" />
  <path d="M55.4 24.2c0-6.2-6.6-11.2-14.6-11.2-8 0-14.6 5-14.6 11.2 0 6.2 6.6 11.2 14.6 11.2 1.6 0 3.2-0.2 4.7-0.6l3.2 2.3c0.1 0.1 0.3 0.1 0.4 0.1 0.1 0 0.3-0.1 0.4-0.2 0.2-0.2 0.2-0.4 0-0.6l-2.5-3.5c4.3-2.1 8.4-5 8.4-8.7z" 
        stroke="#4080ff" 
        stroke-width="3.5" 
        stroke-linejoin="round"
        fill="none" />
  <path d="M37 23c-0.8 0-1.5 0.7-1.5 1.5s0.7 1.5 1.5 1.5 1.5-0.7 1.5-1.5-0.7-1.5-1.5-1.5z"
        fill="#4080ff" />
  <path d="M44 23c-0.8 0-1.5 0.7-1.5 1.5s0.7 1.5 1.5 1.5 1.5-0.7 1.5-1.5-0.7-1.5-1.5-1.5z"
        fill="#4080ff" />
</svg> 